# This file uses meters as units for non-parametric coordinates.
# UVs by headus UVLayout v2.08.01 2013/07/04 09:42:04

v 407.359161 801.313660 -2976.173405
v -407.359161 801.312378 -2976.173405
v 408.591705 801.466187 -1903.850812
v -408.591614 801.466003 -1903.850812
v 264.145599 608.352844 -1903.850812
v 104.632011 660.179749 -1903.852044
v -104.631866 660.179688 -1903.850812
v -264.145966 608.350220 -1903.852044
v -131.965210 935.648376 -1903.850812
v 132.359726 935.648376 -1903.852044
v 602.570984 1097.328979 -1903.850812
v 602.570984 1096.614990 -2976.173405
v -602.570862 1096.612549 -2976.173405
v -602.570862 1097.328979 -1903.850812
v 0.000072 1467.896851 -1903.852044
v 0.000072 608.352844 -2976.173405
v -0.001663 1467.896851 -2976.173405
v 640.380188 1072.874634 -1852.855927
v 640.380249 1072.125732 -3027.144074
v -640.380066 1072.123291 -3027.144074
v -640.380127 1072.874756 -1852.855927
v 0.000058 1479.968262 -1836.818080
v -0.001719 1479.993530 -3043.207574
v 665.477661 1112.073120 -1854.747066
v 665.494202 1111.313232 -3025.273457
v -665.494080 1111.310791 -3025.273457
v -665.477539 1112.073242 -1854.747271
v -104.631905 660.179688 -1937.039025
v -131.965271 935.648376 -1937.039025
v 104.632034 660.179749 -1937.039025
v 132.359726 935.648376 -1937.039025
v -150.059006 660.179688 -2192.025149
v -150.059021 935.648376 -2192.025149
v 150.059128 660.179749 -2192.025149
v 150.059113 935.648376 -2192.025149
v 0.000064 1506.212769 -1841.026814
v -39.413048 1495.113281 -1841.413046
v 0.000058 1479.993042 -1836.820543
v 39.413174 1495.113281 -1841.413046
v -0.001783 1506.187012 -3038.989810
v 39.411358 1495.070068 -3038.603578
v -39.414864 1495.069946 -3038.603578
v -175.926758 920.284241 -1903.850812
v -131.210266 651.543823 -1903.850812
v -124.958160 963.867310 -1903.850812
v 126.500916 969.697449 -1903.852044
v 174.054260 919.433411 -1903.852044
v 127.179573 652.853882 -1903.852044
v -176.643219 960.491638 -1903.850812
v 175.144501 967.389038 -1903.852044
v -104.631844 660.179688 -1877.298313
v -131.965134 935.648376 -1877.298313
v -175.926727 920.284241 -1877.298313
v -131.210236 651.543823 -1877.298313
v 174.054321 919.433411 -1877.298313
v 175.144501 967.389038 -1877.298313
v 126.500954 969.697449 -1877.298313
v 132.359833 935.648376 -1877.298313
v -124.958122 963.867310 -1877.298313
v 127.179672 652.853882 -1877.298313
v 104.632103 660.179749 -1877.298313
v -176.643219 960.491638 -1877.298313
v 0.000141 608.352844 -4845.483685
v 0.000257 -930.617920 -4845.483685
v 2418.033447 608.352844 -4845.483685
v 2342.021973 -930.618469 -4845.483685
v -2342.019531 -930.618591 -4845.483685
v -2418.033936 608.350220 -4845.483685
v 115.001884 565.029419 -1903.852044
v -116.874741 560.044434 -1903.850812
v -486.729675 608.350220 -1903.852044
v -488.267914 608.352295 -2969.696330
v -465.989838 728.108154 -1903.850812
v -464.208618 727.954529 -2976.173405
v 559.891541 608.352844 -1903.850812
v 554.049988 608.352905 -2990.710038
v 510.210327 763.172546 -2976.173405
v 511.991730 763.325073 -1903.850812
v -620.384033 608.350220 -1903.852044
v -632.855591 608.352112 -2953.296879
v -636.855286 641.569214 -1903.852044
v -650.820618 641.571106 -2953.296879
v -489.768066 639.836914 -1903.851838
v -489.531433 639.836914 -2970.398196
v -614.365601 641.569214 -1929.952229
v -625.590515 641.571106 -2928.034007
v -505.546631 639.836914 -1929.952024
v -505.356354 639.836914 -2944.298421
v -621.077759 622.758118 -1955.436537
v -631.738586 622.759888 -2903.366696
v -508.794128 621.112854 -1955.436332
v -508.613403 621.112854 -2918.814113
v 264.145416 608.352844 -1853.850442
v 115.001823 565.029419 -1853.851469
v 0.000144 -923.953369 -1853.851469
v -116.874817 560.044373 -1853.850442
v -264.146149 608.350159 -1853.851469
v 2495.466797 -920.619690 -1853.850442
v 2576.458496 608.352844 -1853.850442
v -2576.458984 608.350220 -1853.851469
v -2495.464111 -920.622131 -1853.851469
# 208 texture coords
vt 0.904204 0.141055
vt 0.895724 0.141045
vt 0.895902 0.015344
vt 0.904352 0.015355
vt 0.265490 0.305565
vt 0.240890 0.289136
vt 0.245982 0.286819
vt 0.267551 0.304620
vt 0.206888 0.283375
vt 0.209655 0.280195
vt 0.213520 0.282640
vt 0.211480 0.286169
vt 0.239480 0.286032
vt 0.182764 0.297194
vt 0.184364 0.298115
vt 0.244030 0.284059
vt 0.957410 0.967559
vt 0.970288 0.961222
vt 0.959009 0.860534
vt 0.818732 0.016514
vt 0.818844 0.011594
vt 0.818650 0.144545
vt 0.818587 0.139632
vt 0.898622 0.144330
vt 0.898471 0.144493
vt 0.813825 0.016316
vt 0.813671 0.139815
vt 0.823532 0.006176
vt 0.897956 0.004962
vt 0.898784 0.012068
vt 0.900128 0.014987
vt 0.899964 0.141408
vt 0.897646 0.151596
vt 0.823269 0.149988
vt 0.808933 0.134448
vt 0.809078 0.021672
vt 0.901297 0.144333
vt 0.901479 0.012071
vt 0.901447 0.144494
vt 0.981345 0.139845
vt 0.981268 0.144760
vt 0.981420 0.011808
vt 0.981519 0.016726
vt 0.986261 0.140039
vt 0.986426 0.016540
vt 0.976635 0.150190
vt 0.902253 0.151600
vt 0.902325 0.004966
vt 0.976746 0.006378
vt 0.991159 0.021908
vt 0.991013 0.134684
vt 0.107492 0.627137
vt 0.104298 0.664227
vt 0.030373 0.655475
vt 0.086520 0.584626
vt 0.126775 0.616514
vt 0.124822 0.619192
vt 0.116967 0.624808
vt 0.004962 0.585505
vt 0.040343 0.573920
vt 0.034349 0.564072
vt 0.040868 0.548387
vt 0.935238 0.857231
vt 0.944963 0.855932
vt 0.947874 0.969595
vt 0.910886 0.973632
vt 0.898263 0.861564
vt 0.962926 0.990658
vt 0.956282 0.851388
vt 0.760614 0.006470
vt 0.797846 0.006485
vt 0.797862 0.119262
vt 0.760657 0.119246
vt 0.749069 0.119263
vt 0.749074 0.006487
vt 0.732010 0.119269
vt 0.732153 0.004962
vt 0.239839 0.291885
vt 0.265467 0.307619
vt 0.400982 0.009864
vt 0.269159 0.304978
vt 0.211997 0.289073
vt 0.239441 0.283138
vt 0.244684 0.281814
vt 0.184069 0.300175
vt 0.214107 0.279759
vt 0.181142 0.297316
vt 0.205017 0.281045
vt 0.209247 0.277916
vt 0.228303 0.185799
vt 0.223554 0.214052
vt 0.199104 0.201519
vt 0.214328 0.181234
vt 0.223474 0.218276
vt 0.178660 0.232608
vt 0.229822 0.176178
vt 0.228909 0.218636
vt 0.241985 0.271660
vt 0.231100 0.186711
vt 0.255355 0.219280
vt 0.253109 0.186720
vt 0.254207 0.176715
vt 0.305408 0.232769
vt 0.260474 0.219043
vt 0.255478 0.185953
vt 0.285050 0.201625
vt 0.260367 0.213997
vt 0.269888 0.181292
vt 0.300992 0.181338
vt 0.295931 0.197629
vt 0.547948 0.989444
vt 0.529939 0.674938
vt 0.342207 0.985060
vt 0.342934 0.874637
vt 0.328216 0.985127
vt 0.304848 0.990477
vt 0.275699 0.675805
vt 0.327639 0.872917
vt 0.276166 0.872401
vt 0.304871 0.985215
vt 0.288638 0.985164
vt 0.288636 0.990422
vt 0.264309 0.985219
vt 0.264335 0.990478
vt 0.248047 0.985341
vt 0.248086 0.990601
vt 0.217022 0.985355
vt 0.004962 0.990725
vt 0.217695 0.871002
vt 0.021454 0.676141
vt 0.248156 0.166129
vt 0.004962 0.166119
vt 0.013488 0.005328
vt 0.263663 0.161037
vt 0.275918 0.004962
vt 0.288073 0.161553
vt 0.538350 0.005165
vt 0.303779 0.166110
vt 0.546972 0.165951
vt 0.728947 0.176178
vt 0.482634 0.176182
vt 0.728948 0.490809
vt 0.466501 0.490815
vt 0.991395 0.490813
vt 0.975260 0.176181
vt 0.738146 0.663191
vt 0.491805 0.663098
vt 0.483871 0.501242
vt 0.738146 0.501337
vt 0.992420 0.501241
vt 0.984488 0.663098
vt 0.004962 0.176193
vt 0.167013 0.176178
vt 0.167865 0.491249
vt 0.006837 0.491233
vt 0.341562 0.349891
vt 0.339688 0.664931
vt 0.178660 0.664946
vt 0.179511 0.349876
vt 0.982968 0.969438
vt 0.990880 0.964502
vt 0.987000 0.964857
vt 0.984355 0.965791
vt 0.984354 0.962389
vt 0.981710 0.963317
vt 0.971584 0.851117
vt 0.980220 0.854640
vt 0.973522 0.854582
vt 0.976262 0.855001
vt 0.971180 0.857518
vt 0.973909 0.857935
vt 0.982016 0.959920
vt 0.972072 0.860717
vt 0.968967 0.967883
vt 0.968977 0.970797
vt 0.968977 0.967470
vt 0.967325 0.967092
vt 0.970332 0.964562
vt 0.968629 0.964103
vt 0.956464 0.854697
vt 0.954682 0.855474
vt 0.958422 0.857240
vt 0.956689 0.858094
vt 0.882415 0.974151
vt 0.857072 0.964261
vt 0.867534 0.937262
vt 0.418969 0.053428
vt 0.421795 0.052046
vt 0.885683 0.975380
vt 0.822399 0.979580
vt 0.827641 0.952851
vt 0.842918 0.987540
vt 0.813098 0.916088
vt 0.838104 0.925853
vt 0.802250 0.943090
vt 0.849537 0.901519
vt 0.841655 0.990795
vt 0.821136 0.982835
vt 0.799007 0.941797
vt 0.809861 0.914778
vt 0.850799 0.898263
vt 0.895866 0.948107
vt 0.876717 0.908317
vt 0.892592 0.946894
vt 0.875454 0.911572
vt 0.402578 0.011623
vt 0.400578 0.009801
vt 0.248129 0.284727
vn -0.000001 0.000000 1.000000
vn -0.000001 0.000000 1.000000
vn -0.000001 0.000000 1.000000
vn -0.000001 0.000000 1.000000
vn -0.000006 0.000002 1.000000
vn -0.000006 0.000002 1.000000
vn -0.000006 0.000002 1.000000
vn -0.000006 0.000002 1.000000
vn 0.835244 -0.549880 -0.000258
vn 0.835244 -0.549880 -0.000258
vn 0.835244 -0.549880 -0.000258
vn 0.835244 -0.549880 -0.000258
vn -0.835243 -0.549881 -0.000257
vn -0.835243 -0.549881 -0.000257
vn -0.835243 -0.549881 -0.000257
vn -0.835243 -0.549881 -0.000257
vn 0.000000 0.000000 1.000000
vn 0.000000 0.000002 1.000000
vn 0.000000 0.000002 1.000000
vn 0.000000 0.000000 1.000000
vn 0.000000 0.000000 1.000000
vn 0.000000 0.000000 1.000000
vn 0.000000 0.000000 1.000000
vn 0.000000 0.000000 1.000000
vn 0.000005 0.000001 1.000000
vn 0.000005 0.000001 1.000000
vn 0.000005 0.000001 1.000000
vn 0.958792 0.284090 -0.003405
vn 0.958792 0.284089 -0.003405
vn 0.958792 0.284089 -0.003405
vn 0.958792 0.284090 -0.003405
vn -0.002861 0.009429 -0.999952
vn -0.000964 0.001353 -0.999999
vn -0.000000 0.000000 -1.000000
vn -0.000000 0.000000 -1.000000
vn -0.538024 -0.842382 0.030372
vn -0.538301 -0.842227 -0.029780
vn -0.532606 -0.844183 -0.060711
vn -0.532059 -0.844521 0.060806
vn 0.538301 -0.842226 -0.029780
vn 0.538023 -0.842382 0.030374
vn 0.532058 -0.844521 0.060809
vn 0.532609 -0.844181 -0.060712
vn 0.527936 -0.845468 0.080418
vn 0.527936 -0.845468 0.080418
vn -0.527936 -0.845469 0.080415
vn -0.527936 -0.845469 0.080415
vn -0.528650 -0.845001 -0.080641
vn -0.528650 -0.845001 -0.080641
vn 0.528654 -0.844998 -0.080643
vn 0.528654 -0.844998 -0.080643
vn 0.842055 -0.539392 0.000353
vn 0.842055 -0.539392 0.000353
vn 0.842055 -0.539392 0.000353
vn 0.842055 -0.539392 0.000353
vn -0.842055 -0.539392 0.000354
vn -0.842055 -0.539392 0.000354
vn -0.842055 -0.539392 0.000354
vn -0.842055 -0.539392 0.000354
vn -0.055941 0.052600 0.997048
vn -0.000001 0.052681 0.998611
vn -0.000001 0.053741 0.998555
vn -0.055934 0.053159 0.997018
vn -0.055941 0.052600 0.997048
vn 0.055938 0.052597 0.997048
vn 0.055938 0.052597 0.997048
vn 0.055931 0.053156 0.997019
vn 0.055930 0.052457 -0.997056
vn -0.000000 0.054756 -0.998500
vn 0.055924 0.053019 -0.997026
vn 0.055930 0.052457 -0.997056
vn -0.055930 0.052457 -0.997056
vn -0.055930 0.052457 -0.997056
vn -0.055924 0.053019 -0.997026
vn -0.522243 0.852796 -0.000286
vn -0.509299 0.860590 -0.000272
vn -0.509299 0.860590 -0.000272
vn -0.522243 0.852796 -0.000286
vn 0.522241 0.852798 -0.000286
vn 0.509297 0.860591 -0.000272
vn 0.509296 0.860591 -0.000272
vn 0.522241 0.852798 -0.000286
vn -0.000000 0.000000 -1.000000
vn -0.000000 0.000000 -1.000000
vn -0.000000 0.000000 -1.000000
vn -0.000000 0.000000 -1.000000
vn -0.000000 -0.000001 1.000000
vn -0.000000 -0.000000 1.000000
vn -0.000001 -0.000000 1.000000
vn 0.995113 0.098740 -0.000002
vn 0.995113 0.098740 -0.000002
vn 0.995113 0.098740 -0.000001
vn 0.995113 0.098740 -0.000001
vn -0.994972 0.100150 0.000001
vn -0.994972 0.100150 0.000001
vn -0.994972 0.100150 -0.000000
vn -0.994972 0.100150 -0.000000
vn 0.000000 -1.000000 -0.000000
vn 0.000000 -1.000000 -0.000000
vn 0.000000 -1.000000 0.000002
vn 0.000000 -1.000000 0.000002
vn -0.000000 1.000000 0.000001
vn -0.000000 1.000000 0.000001
vn -0.000000 1.000000 0.000001
vn -0.000000 1.000000 0.000001
vn 0.991131 0.049172 -0.123453
vn 0.991131 0.049172 -0.123453
vn 0.991131 0.049172 -0.123453
vn 0.991131 0.049172 -0.123453
vn -0.991190 0.049885 -0.122694
vn -0.991190 0.049885 -0.122694
vn -0.991190 0.049885 -0.122694
vn -0.991190 0.049885 -0.122694
vn 0.000000 -1.000000 0.000000
vn 0.000000 -1.000000 0.000000
vn 0.000000 -1.000000 0.000000
vn 0.000000 -1.000000 0.000000
vn -0.000000 1.000000 -0.000000
vn -0.000000 1.000000 -0.000000
vn -0.000000 1.000000 -0.000000
vn -0.000000 1.000000 -0.000000
vn 0.000000 0.000000 1.000000
vn 0.000000 0.000000 1.000000
vn 0.000000 0.000000 1.000000
vn 0.000000 0.000000 1.000000
vn -0.271274 0.962502 -0.000027
vn -0.271274 0.962502 -0.000027
vn 0.271272 0.962503 -0.000028
vn 0.271272 0.962503 -0.000028
vn -0.000000 0.158398 0.987375
vn -0.000000 0.158976 -0.987283
vn -0.000003 -0.000003 1.000000
vn -0.000002 -0.000003 1.000000
vn -0.000002 -0.000003 1.000000
vn -0.000002 -0.000003 1.000000
vn 0.000000 0.000000 1.000000
vn 0.000000 0.000000 1.000000
vn 0.000000 0.000000 1.000000
vn 0.000000 0.000000 1.000000
vn 0.000001 0.000000 1.000000
vn 0.000001 0.000000 1.000000
vn 0.000001 0.000000 1.000000
vn 0.000001 0.000000 1.000000
vn -0.000001 0.000000 1.000000
vn -0.000001 0.000000 1.000000
vn -0.000001 0.000000 1.000000
vn -0.000001 0.000000 1.000000
vn -0.000003 -0.000000 1.000000
vn -0.000003 -0.000000 1.000000
vn -0.000002 -0.000001 1.000000
vn -0.000002 -0.000001 1.000000
vn 0.000001 0.000002 1.000000
vn 0.000001 0.000002 1.000000
vn -0.000004 0.000002 1.000000
vn -0.000004 0.000002 1.000000
vn -0.000000 -0.000000 1.000000
vn -0.000000 -0.000000 1.000000
vn 0.995113 0.098740 -0.000002
vn 0.995113 0.098740 -0.000002
vn -0.989359 -0.145492 0.000001
vn -0.986438 -0.164136 0.000001
vn -0.986438 -0.164136 0.000001
vn -0.989359 -0.145492 0.000001
vn 0.309018 -0.951056 -0.000002
vn 0.309018 -0.951056 -0.000002
vn 0.309018 -0.951056 -0.000002
vn 0.309018 -0.951056 -0.000002
vn 0.988572 -0.150752 -0.000003
vn 0.999742 -0.022728 -0.000001
vn 0.999742 -0.022728 -0.000001
vn 0.988572 -0.150752 -0.000003
vn 0.047402 0.998876 0.000000
vn -0.011734 0.999931 0.000001
vn -0.011734 0.999931 0.000001
vn 0.047402 0.998876 0.000000
vn 0.000000 -1.000000 -0.000003
vn 0.000000 -1.000000 -0.000003
vn -0.030354 0.999539 0.000001
vn -0.030354 0.999539 0.000001
vn 0.984890 -0.173181 -0.000003
vn 0.984890 -0.173181 -0.000003
vn -0.994972 0.100150 0.000004
vn -0.994972 0.100150 0.000004
vn -0.309006 -0.951060 0.000001
vn -0.309006 -0.951060 0.000001
vn -0.309006 -0.951060 0.000001
vn -0.309006 -0.951060 0.000001
vn -0.065174 0.997874 0.000001
vn -0.065174 0.997874 0.000001
vn -0.999841 -0.017817 0.000001
vn -0.999841 -0.017817 0.000001
vn -0.000001 -0.000000 1.000000
vn -0.000000 -0.000000 1.000000
vn 0.000000 0.000000 1.000000
vn 0.000000 0.000000 -1.000000
vn 0.000000 0.000000 -1.000000
vn -0.000000 1.000000 -0.000000
vn -0.000000 1.000000 -0.000000
vn 0.000000 1.000000 -0.000000
vn -0.000000 1.000000 -0.000000
vn -0.000688 -0.999996 0.002767
vn 0.000000 -0.999996 0.002767
vn 0.000000 -0.999996 0.002767
vn -0.000688 -0.999996 0.002767
vn 0.997347 -0.051040 -0.051900
vn 0.997347 -0.051040 -0.051900
vn 0.997347 -0.051040 -0.051900
vn 0.997347 -0.051040 -0.051900
vn 0.000003 0.000000 1.000000
vn 0.000005 -0.000000 1.000000
vn 0.000005 -0.000000 1.000000
vn 0.000003 -0.000000 1.000000
vn -0.000001 1.000000 0.000000
vn -0.000001 1.000000 0.000000
vn -0.000001 1.000000 0.000000
vn -0.000001 1.000000 0.000000
vn -0.000001 1.000000 0.000000
vn 0.000002 -0.000007 1.000000
vn 0.000002 -0.000007 1.000000
vn 0.000002 -0.000007 1.000000
vn 0.000002 -0.000007 1.000000
vn 0.000002 -0.000007 1.000000
vn -0.788998 0.614394 -0.001197
vn -0.788998 0.614394 -0.001197
vn -0.788999 0.614394 -0.001197
vn -0.788998 0.614394 -0.001197
vn -0.008928 -0.030255 -0.999502
vn -0.008928 -0.030255 -0.999502
vn -0.008928 -0.030255 -0.999502
vn -0.000920 -0.003117 -0.999995
vn -0.018537 0.061089 -0.997960
vn -0.018537 0.061089 -0.997960
vn 0.346886 0.937907 -0.000621
vn 0.346886 0.937907 -0.000621
vn 0.346886 0.937907 -0.000621
vn 0.346886 0.937907 -0.000621
vn 0.000000 0.000000 1.000000
vn 0.000000 0.000000 1.000000
vn 0.000000 0.000000 1.000000
vn 0.000000 0.000000 1.000000
vn 0.000000 1.000000 0.000000
vn 0.000000 1.000000 0.000000
vn 0.013979 0.999902 -0.000076
vn 0.013979 0.999902 -0.000076
vn 0.013979 0.999902 -0.000076
vn 0.013979 0.999902 -0.000076
vn -0.887770 -0.460151 0.011181
vn -0.887770 -0.460151 0.011181
vn -0.887770 -0.460151 0.011181
vn -0.887770 -0.460151 0.011181
vn -0.000001 -0.000003 1.000000
vn -0.000001 -0.000003 1.000000
vn -0.000001 -0.000003 1.000000
vn -0.000001 -0.000003 1.000000
vn -0.109013 -0.043169 -0.993103
vn -0.109013 -0.043169 -0.993103
vn -0.109013 -0.043169 -0.993103
vn -0.109013 -0.043169 -0.993103
vn -0.963379 0.268143 -0.000928
vn -0.963379 0.268143 -0.000928
vn -0.963379 0.268143 -0.000928
vn -0.963379 0.268143 -0.000928
vn 0.000000 1.000000 0.000002
vn 0.000000 1.000000 0.000002
vn 0.000000 1.000000 0.000002
vn 0.000000 1.000000 0.000002
vn 0.013537 0.999907 0.001741
vn 0.013537 0.999907 0.001741
vn 0.013537 0.999907 0.001741
vn 0.013537 0.999907 0.001741
vn 0.000000 1.000000 0.000000
vn 0.000000 1.000000 0.000000
vn 0.000000 1.000000 0.000000
vn 0.000000 1.000000 0.000000
vn 0.012057 0.999925 -0.002208
vn 0.012057 0.999925 -0.002208
vn 0.012057 0.999925 -0.002208
vn 0.012057 0.999925 -0.002208
vn 0.946262 -0.323227 -0.010643
vn 0.946262 -0.323227 -0.010643
vn 0.946262 -0.323227 -0.010643
vn 0.946262 -0.323227 -0.010643
vn 0.012283 0.804003 -0.594498
vn 0.012283 0.804003 -0.594498
vn 0.012283 0.804003 -0.594498
vn 0.012283 0.804003 -0.594498
vn -0.985248 0.171132 -0.000185
vn -0.985248 0.171132 -0.000185
vn -0.985248 0.171132 -0.000185
vn -0.985248 0.171132 -0.000185
vn 0.090132 0.789160 0.607538
vn 0.090132 0.789160 0.607538
vn 0.090132 0.789160 0.607538
vn 0.090132 0.789160 0.607538
vn -0.144335 0.989529 -0.000001
vn -0.125780 0.992058 -0.000001
vn -0.125780 0.992058 -0.000001
vn -0.079604 0.996827 0.000001
vn 0.113520 0.993536 0.000000
vn 0.113519 0.993536 0.000000
vn 0.183646 0.982993 0.000001
vn 0.079468 0.996837 0.000000
vn 0.000689 -0.999996 0.002767
vn 0.000689 -0.999996 0.002767
vn 0.000000 1.000000 -0.000000
vn -0.997347 -0.051042 -0.051900
vn -0.997347 -0.051042 -0.051900
vn -0.997347 -0.051042 -0.051900
vn -0.997347 -0.051042 -0.051900
vn -0.000001 1.000000 0.000000
vn -0.000001 1.000000 0.000000
vn 0.000000 0.000000 1.000000
vn 0.000000 0.000000 -1.000000
s off
f 51/5/1 52/6/2 53/7/3 54/8/4
s 1
f 5/108/5 3/106/6 47/107/7 48/105/8
s off
f 1/70/9 12/71/10 11/72/11 3/73/12
f 4/65/13 14/66/14 13/67/15 2/63/16
s 2
f 43/91/17 49/94/18 14/95/19 4/92/20
s off
f 55/9/21 56/10/22 57/11/23 58/12/24
f 45/97/25 46/100/26 15/98/27
f 75/76/28 76/77/29 77/75/30 78/74/31
s 3
f 1/60/32 16/55/33 17/54/34 12/59/35
s 4
f 11/35/36 12/36/37 19/26/38 18/27/39
s 5
f 13/50/40 14/51/41 21/44/42 20/45/43
f 14/46/41 15/47/44 22/39/45 21/41/42
s 4
f 15/33/46 11/34/36 18/22/39 22/25/47
f 12/28/37 17/29/48 23/30/49 19/21/38
s 5
f 17/48/50 13/49/40 20/42/43 23/38/51
s off
f 18/27/52 19/26/53 25/20/54 24/23/55
f 20/45/56 21/44/57 27/40/58 26/43/59
s 6
f 21/41/60 22/39/61 38/37/62 37/1/63 27/40/64
f 22/25/61 18/22/65 24/23/66 39/2/67 38/24/62
s 7
f 19/21/68 23/30/69 41/3/70 25/20/71
f 23/38/69 20/42/72 26/43/73 42/4/74
s 9
f 27/40/75 37/1/76 42/4/77 26/43/78
s 10
f 25/20/79 41/3/80 39/2/81 24/23/82
s 11
f 64/146/83 63/149/84 65/150/85 66/151/86
s 12
f 94/136/87 96/134/88 95/135/89
s 13
f 9/202/90 7/189/91 28/184/92 29/204/93
s 14
f 6/199/94 10/200/95 31/193/96 30/195/97
s 15
f 10/201/98 9/203/99 29/205/100 31/196/101
s off
f 7/197/102 6/198/103 30/190/104 28/192/105
f 29/204/106 28/184/107 32/185/108 33/186/109
f 30/195/110 31/193/111 35/194/112 34/191/113
f 31/196/114 29/205/115 33/186/116 35/194/117
f 28/192/118 30/190/119 34/191/120 32/185/121
f 33/186/122 32/185/123 34/191/124 35/194/125
s 9
f 37/1/76 36/32/126 40/31/127 42/4/77
s 10
f 36/32/128 39/2/81 41/3/80 40/31/129
s 6
f 38/24/62 39/2/67 36/32/130
f 38/37/62 36/32/130 37/1/63
s 7
f 23/38/69 42/4/74 40/31/131
f 23/30/69 40/31/131 41/3/70
s 1
f 44/90/132 43/91/133 4/92/134 8/93/135
s off
f 52/6/136 58/12/137 57/11/138 59/13/139
f 60/14/140 55/9/141 58/12/142 61/15/143
f 52/6/144 59/13/145 62/16/146 53/7/147
s 17
f 50/104/148 11/103/149 15/98/150 46/100/151
s 2
f 14/95/19 49/94/18 45/97/152 15/98/153
s 17
f 3/106/154 11/103/149 50/104/148 47/107/155
s 12
f 95/135/89 96/134/88 97/131/156 101/133/157
s 13
f 7/79/91 9/78/90 52/6/158 51/5/159
s 18
f 43/208/160 44/81/161 54/8/162 53/7/163
s off
f 44/81/164 7/79/165 51/5/166 54/8/167
s 19
f 47/88/168 50/89/169 56/10/170 55/9/171
s 20
f 50/89/172 46/86/173 57/11/174 56/10/175
s 15
f 9/78/99 10/82/98 58/12/176 52/6/177
s 20
f 46/86/173 45/83/178 59/13/179 57/11/174
s 19
f 48/87/180 47/88/168 55/9/171 60/14/181
s 14
f 10/82/95 6/85/94 61/15/182 58/12/183
s off
f 6/85/184 48/87/185 60/14/186 61/15/187
s 20
f 45/83/178 49/84/188 62/16/189 59/13/179
s 18
f 49/84/190 43/208/160 53/7/163 62/16/191
s 12
f 93/138/192 98/137/193 99/139/194
s 11
f 64/146/83 67/147/195 68/148/196 63/149/84
s 21
f 63/117/197 16/119/198 76/129/199 65/130/200
s 22
f 67/141/201 64/140/202 95/142/203 101/143/204
s off
f 66/152/205 65/153/206 99/154/207 98/155/208
s 1
f 5/108/5 48/105/8 69/102/209
f 69/102/209 48/105/8 6/101/210
f 6/101/210 7/99/211 70/96/212 69/102/209
f 7/99/211 44/90/132 70/96/212
f 8/93/135 70/96/212 44/90/132
s 21
f 63/117/213 68/112/214 80/114/215 72/118/216 16/119/217
s off
f 8/68/218 4/65/219 73/17/220 83/177/221 71/174/222
f 4/65/223 2/63/224 74/64/225 73/17/226
s 3
f 16/55/33 72/56/227 84/57/228 74/58/229 2/52/230
f 1/60/32 77/61/231 76/62/232 16/55/33
s off
f 1/70/233 3/73/234 78/74/235 77/75/236
f 3/106/237 5/108/238 75/109/239 78/110/240
s 21
f 65/130/200 76/129/199 75/127/241 99/128/242
s off
f 90/173/243 89/172/244 91/18/245 92/19/246
f 80/167/247 79/161/248 81/162/249 82/169/250
f 79/160/251 71/175/252 83/176/253 81/163/254
f 72/69/255 80/166/256 82/168/257 84/180/258
f 84/181/259 83/177/260 73/17/261 74/64/262
f 82/169/263 81/162/264 85/164/265 86/171/266
f 81/163/267 83/176/268 87/178/269 85/165/270
f 83/177/271 84/181/272 88/183/273 87/179/274
f 84/180/275 82/168/276 86/170/277 88/182/278
f 86/171/279 85/164/280 89/172/281 90/173/282
f 85/165/283 87/178/284 91/18/285 89/172/286
f 87/179/287 88/183/288 92/19/289 91/18/290
f 88/182/291 86/170/292 90/173/293 92/19/294
s 21
f 5/125/295 69/123/296 94/124/297 93/126/298
f 69/123/296 70/121/299 96/122/300 94/124/297
f 70/121/299 8/120/301 97/116/302 96/122/300
s 22
f 66/145/303 98/144/304 95/142/203 64/140/202
s 21
f 8/120/301 71/115/305 97/116/302
s off
f 67/156/306 101/157/307 100/158/308 68/159/309
s 21
f 68/112/214 100/111/310 79/113/311 80/114/215
f 99/128/242 75/127/241 93/126/298
f 97/116/302 71/115/305 79/113/311 100/111/310
f 75/127/241 5/125/295 93/126/298
s 12
f 95/135/89 98/137/193 93/138/192 94/136/87
f 101/133/157 97/131/156 100/132/312
s 3
f 16/55/33 2/52/230 13/53/313 17/54/34
